<svg xmlns="http://www.w3.org/2000/svg" viewBox="0 0 320 90" width="100%" height="90px" style="background:#0a0d17;border-radius:8px;border:1px solid rgba(0,255,136,0.15);box-shadow:inset 0 0 8px rgba(0,0,0,0.4)">
  <rect x="0" y="0" width="320" height="15" fill="#081c13"/>
  <text x="160" y="10.5" fill="rgba(255,255,255,0.4)" font-size="6" font-family="monospace" text-anchor="middle">ARES_OS // MOBILITY_INTEGRATION_CORE</text>
  <g transform="translate(45, 50)">
    <circle cx="0" cy="0" r="22" fill="none" stroke="#00ff88" stroke-width="1" stroke-dasharray="3 2"/>
    <circle cx="0" cy="0" r="16" fill="none" stroke="rgba(255,255,255,0.15)" stroke-width="0.8"/>
    <circle cx="0" cy="0" r="8" fill="none" stroke="#00ff88" stroke-width="1.5"/>
    <circle cx="0" cy="0" r="2" fill="#fff"/>
    <line x1="0" y1="-22" x2="0" y2="22" stroke="#00ff88" stroke-width="0.8" opacity="0.6"/>
    <line x1="-22" y1="0" x2="22" y2="0" stroke="#00ff88" stroke-width="0.8" opacity="0.6"/>
    <line x1="-15.5" y1="-15.5" x2="15.5" y2="15.5" stroke="#00ff88" stroke-width="0.8" opacity="0.6"/>
    <line x1="-15.5" y1="15.5" x2="15.5" y2="-15.5" stroke="#00ff88" stroke-width="0.8" opacity="0.6"/>
    <text x="0" y="32" fill="rgba(255,255,255,0.6)" font-size="5.5" font-family="monospace" text-anchor="middle">GEAR HUB SPECS</text>
  </g>
  <g>
    <path d="M 67,50 C 120,30 190,70 243,50" fill="none" stroke="#00ff88" stroke-width="1.2" stroke-dasharray="3 3"/>
    <text x="155" y="46" fill="#fff" font-size="5.5" font-family="monospace" text-anchor="middle" opacity="0.7">TRANSIT DELTA LINK</text>
    <rect x="120" y="52" width="70" height="8" rx="2" fill="rgba(0,255,136,0.08)" stroke="rgba(0,255,136,0.3)" stroke-width="0.5"/>
    <text x="155" y="58" fill="#00ff88" font-size="4.5" font-family="monospace" text-anchor="middle" font-weight="bold">INDEPENDENCE: 100%</text>
  </g>
  <g>
    <path d="M 245,60 L 265,40 L 285,60" fill="none" stroke="rgba(255,255,255,0.2)" stroke-width="1"/>
    <circle cx="245" cy="60" r="3" fill="#00f0ff"/>
    <circle cx="265" cy="40" r="3.5" fill="#00ff88" stroke="#fff" stroke-width="0.5"/>
    <circle cx="285" cy="60" r="3" fill="#00f0ff"/>
    <text x="265" y="74" fill="rgba(255,255,255,0.6)" font-size="5.5" font-family="monospace" text-anchor="middle">COMMUTE NODES</text>
  </g>
  <text x="10" y="84" fill="rgba(255,255,255,0.4)" font-size="5.5" font-family="monospace" text-anchor="start">SYSTEM: mobility_core_v1.0</text>
  <text x="310" y="84" fill="#00ff88" font-size="5.5" font-family="monospace" text-anchor="end">INTEGRATION: ARMED</text>
</svg>
