<svg xmlns="http://www.w3.org/2000/svg" viewBox="0 0 320 110" width="100%" height="110px" style="background:#0a0d17;border-radius:8px;border:1px solid rgba(255,87,34,0.22);box-shadow:inset 0 0 10px rgba(0,0,0,0.4)">
  <rect x="0" y="0" width="320" height="15" fill="#1b100a"/>
  <text x="160" y="10.5" fill="rgba(255,255,255,0.4)" font-size="6" font-family="monospace" text-anchor="middle">ARES_OS // PLAYMAKER_HIGHLIGHT_GRID</text>
  <g opacity="0.1">
    <line x1="10" y1="20" x2="310" y2="20" stroke="#ff5722" stroke-width="0.5"/>
    <line x1="10" y1="50" x2="310" y2="50" stroke="#ff5722" stroke-width="0.5"/>
    <line x1="10" y1="80" x2="310" y2="80" stroke="#ff5722" stroke-width="0.5"/>
    <line x1="50" y1="15" x2="50" y2="100" stroke="#ff5722" stroke-width="0.5"/>
    <line x1="110" y1="15" x2="110" y2="100" stroke="#ff5722" stroke-width="0.5"/>
    <line x1="170" y1="15" x2="170" y2="100" stroke="#ff5722" stroke-width="0.5"/>
    <line x1="230" y1="15" x2="230" y2="100" stroke="#ff5722" stroke-width="0.5"/>
  </g>
  <g transform="translate(10, 20)">
    <circle cx="45" cy="30" r="18" fill="none" stroke="rgba(255,87,34,0.2)" stroke-width="1" stroke-dasharray="2 2"/>
    <circle cx="45" cy="30" r="10" fill="none" stroke="rgba(0,240,255,0.3)" stroke-width="1"/>
    <circle cx="45" cy="30" r="3" fill="#ff5722"/>
    <path d="M 15,48 L 35,35 L 45,30" fill="none" stroke="#ff5722" stroke-width="2.2" filter="drop-shadow(0 0 3px rgba(255,87,34,0.6))"/>
    <text x="45" y="58" fill="rgba(255,255,255,0.5)" font-size="5.5" font-family="monospace" text-anchor="middle">INTERCEPT RADAR</text>
  </g>
  <g transform="translate(180, 25)">
    <rect x="0" y="0" width="130" height="52" rx="4" fill="rgba(0,0,0,0.6)" stroke="rgba(255,87,34,0.2)" stroke-width="1"/>
    <text x="10" y="12" fill="#ff5722" font-size="6.5" font-family="monospace" font-weight="bold">HIGHLIGHT: PASS INT</text>
    <text x="10" y="22" fill="#fff" font-size="5.5" font-family="monospace">TOUCHDOWN CAPTURE</text>
    <text x="10" y="32" fill="rgba(255,255,255,0.7)" font-size="5" font-family="monospace">TEAM EXCITEMENT: PEAK</text>
    <text x="10" y="42" fill="#00f0ff" font-size="5" font-family="monospace" font-weight="bold">SOCIAL SCRIPTS: SUCCESS</text>
  </g>
  <text x="10" y="102" fill="rgba(255,255,255,0.4)" font-size="5.5" font-family="monospace" text-anchor="start">PREDICTION: INTERCEPT_OK</text>
  <text x="310" y="102" fill="#ff5722" font-size="5.5" font-family="monospace" text-anchor="end">THRILL_INDEX: 100%</text>
</svg>
