<svg xmlns="http://www.w3.org/2000/svg" viewBox="0 0 320 110" width="100%" height="110px" style="background:#080b13;border-radius:8px;border:1px solid rgba(0,240,255,0.22);box-shadow:inset 0 0 10px rgba(0,240,255,0.1)">
  <rect x="0" y="0" width="320" height="15" fill="#141a29"/>
  <circle cx="10" cy="7.5" r="3" fill="#ea4335"/>
  <circle cx="20" cy="7.5" r="3" fill="#ffb300"/>
  <circle cx="30" cy="7.5" r="3" fill="#00ff88"/>
  <text x="160" y="10.5" fill="rgba(255,255,255,0.4)" font-size="6" font-family="monospace" text-anchor="middle">ARES_OS // TECH_INTEGRATION_CORE</text>
  <g opacity="0.1">
    <line x1="0" y1="40" x2="320" y2="40" stroke="#00f0ff" stroke-width="0.5"/>
    <line x1="0" y1="70" x2="320" y2="70" stroke="#00f0ff" stroke-width="0.5"/>
    <line x1="160" y1="15" x2="160" y2="110" stroke="#00f0ff" stroke-width="0.5"/>
  </g>
  <g transform="translate(15, 20)">
    <rect x="5" y="10" width="80" height="50" rx="3" fill="none" stroke="#00f0ff" stroke-width="1.2" filter="drop-shadow(0 0 2px rgba(0,240,255,0.3))"/>
    <rect x="10" y="15" width="70" height="30" rx="1.5" fill="#060910" stroke="rgba(0,240,255,0.2)" stroke-width="0.8"/>
    <line x1="15" y1="20" x2="45" y2="20" stroke="#00f0ff" stroke-width="1"/>
    <line x1="15" y1="26" x2="35" y2="26" stroke="#00ff88" stroke-width="0.8"/>
    <line x1="15" y1="32" x2="55" y2="32" stroke="rgba(255,255,255,0.3)" stroke-width="0.8"/>
    <circle cx="65" cy="25" r="5" fill="none" stroke="#2979ff" stroke-width="1"/>
    <text x="45" y="55" fill="rgba(255,255,255,0.6)" font-size="6" font-family="monospace" text-anchor="middle">GUI SYSTEMS</text>
  </g>
  <g transform="translate(110, 55)">
    <line x1="0" y1="0" x2="100" y2="0" stroke="rgba(255,255,255,0.15)" stroke-width="1" stroke-dasharray="3 2"/>
    <path d="M 40,-8 L 50,0 L 40,8" fill="none" stroke="#00ff88" stroke-width="1"/>
    <path d="M 60,-8 L 50,0 L 60,8" fill="none" stroke="#00f0ff" stroke-width="1"/>
    <rect x="33" y="-6" width="34" height="12" rx="2" fill="#141a29" stroke="rgba(255,255,255,0.15)" stroke-width="0.8"/>
    <text x="50" y="2.5" fill="#00f0ff" font-size="5" font-family="monospace" text-anchor="middle" font-weight="bold">SYNAPSE</text>
  </g>
  <g transform="translate(225, 20)">
    <ellipse cx="40" cy="35" rx="25" ry="10" fill="none" stroke="#00ff88" stroke-width="1.2" filter="drop-shadow(0 0 2px rgba(0,255,136,0.3))"/>
    <ellipse cx="40" cy="35" rx="10" ry="4" fill="none" stroke="#00f0ff" stroke-width="1"/>
    <path d="M 30,35 Q 40,10 50,35" fill="none" stroke="#c259ff" stroke-width="1" stroke-dasharray="2 1"/>
    <circle cx="40" cy="15" r="3" fill="#fff" filter="drop-shadow(0 0 3px #00ff88)"/>
    <line x1="40" y1="35" x2="40" y2="15" stroke="rgba(0,255,136,0.4)" stroke-width="0.8"/>
    <text x="40" y="55" fill="rgba(255,255,255,0.6)" font-size="6" font-family="monospace" text-anchor="middle">GADGET CORES</text>
  </g>
  <text x="10" y="102" fill="rgba(255,255,255,0.4)" font-size="5.5" font-family="monospace" text-anchor="start">HYBRID_PORT: interactive_deck_v3</text>
  <text x="310" y="102" fill="#00f0ff" font-size="5.5" font-family="monospace" text-anchor="end">INTEGRATION: ACTIVE</text>
</svg>
